<?xml version="1.0" encoding="iso-8859-1"?>
<!-- Generator: Adobe Illustrator 19.0.0, SVG Export Plug-In . SVG Version: 6.00 Build 0)  -->
<svg version="1.1" id="Layer_1" xmlns="http://www.w3.org/2000/svg" xmlns:xlink="http://www.w3.org/1999/xlink" x="0px" y="0px"
	 viewBox="0 0 512.005 512.005" style="enable-background:new 0 0 512.005 512.005;" xml:space="preserve">
<g>
	<g>
		<path d="M511.573,181.176c-2.347-14.293-14.4-25.387-28.8-26.56c-18.88-1.6-34.667,13.227-34.773,31.787
			c-0.107,13.653,8.533,25.813,21.333,30.293v18.347c-7.04-3.84-15.04-5.867-23.04-5.76c-10.667,0.107-21.227,3.093-30.293,8.747
			v-21.44c17.28-6.08,26.027-25.6,18.773-42.773c-6.293-14.72-22.827-22.613-38.187-18.24c-17.92,5.12-27.52,24.107-21.44,41.493
			c3.2,9.067,10.347,16.32,19.52,19.52v55.36h0.107c0,0.533-0.107,0.96-0.107,1.493v36.053c0,1.493-0.213,2.88-0.32,4.373
			c-17.28-5.76-30.4-41.067-41.067-69.867l-1.067-2.773c-19.307-52.267-68.267-139.84-179.627-139.84
			C77.44,101.282,0,178.189,0,272.802c0,75.947,62.187,137.6,138.56,137.813h230.933c67.947,0,121.067-54.08,121.067-123.2v-13.973
			c0-0.533-0.107-0.96-0.107-1.493h0.107v-55.253C505.067,211.576,514.133,196.856,511.573,181.176z M394.667,186.616
			c0-5.867,4.8-10.667,10.667-10.667c5.867,0,10.667,4.8,10.667,10.667c0,5.867-4.8,10.667-10.667,10.667
			C399.467,197.282,394.667,192.482,394.667,186.616z M204.8,389.283c29.653-21.12,47.253-55.36,47.253-91.733
			c-0.107-51.093-41.6-92.587-92.693-92.587c-42.133,0-76.267,34.133-76.267,76.16c0,35.627,26.027,62.507,60.48,62.507
			c15.04,0,30.507-9.92,36.693-23.573c3.627-8,7.253-24.32-9.387-43.307c-3.947-4.373-10.667-4.8-15.04-0.96
			c-4.373,3.84-4.8,10.56-0.96,14.933c6.72,7.68,8.64,14.507,5.973,20.48c-3.093,6.827-11.413,11.093-17.28,11.093
			c-22.72,0-39.147-17.28-39.147-41.173c0.107-30.293,24.64-54.827,54.933-54.827c39.36,0,71.253,31.893,71.36,71.253
			c-0.107,50.667-41.173,91.733-91.84,91.733c-64.853,0-117.547-52.16-117.547-116.373c0-82.88,67.84-150.293,151.36-150.293
			c98.453,0,142.293,78.933,159.68,125.867l1.067,2.773c13.013,35.2,27.627,74.667,55.147,82.987
			c-14.4,29.547-53.227,55.04-105.6,55.04H204.8z M469.333,287.416c0,57.067-43.84,101.867-99.733,101.867h-6.08
			C395.2,370.616,416,341.496,416,309.496v-36.053c0-13.013,16-22.827,31.36-22.827c13.547,0,21.973,8.747,21.973,22.827V287.416z
			 M480,197.282c-5.867,0-10.667-4.8-10.667-10.667c0-5.867,4.8-10.667,10.667-10.667c5.867,0,10.667,4.8,10.667,10.667
			C490.667,192.482,485.973,197.282,480,197.282z"/>
	</g>
</g>
<g>
</g>
<g>
</g>
<g>
</g>
<g>
</g>
<g>
</g>
<g>
</g>
<g>
</g>
<g>
</g>
<g>
</g>
<g>
</g>
<g>
</g>
<g>
</g>
<g>
</g>
<g>
</g>
<g>
</g>
</svg>
