<svg xmlns="http://www.w3.org/2000/svg" viewBox="0 0 512 512">
  <defs/>
  <path d="M512 181a32 32 0 10-43 36v18c-7-4-15-6-23-6-10 0-21 3-30 9v-21a32 32 0 10-21 0v92l-1 5c-17-6-30-41-41-70l-1-3c-19-52-68-140-179-140C77 101 0 178 0 273c0 76 62 137 139 138h230c68 0 122-54 122-124v-14l-1-1h1v-55c14-5 23-20 21-36zm-117 6c0-6 4-11 10-11s11 5 11 11c0 5-5 10-11 10s-10-5-10-10zM205 389c29-21 47-55 47-91 0-52-42-93-93-93-42 0-76 34-76 76 0 36 26 63 61 63 15 0 30-10 36-24 4-8 8-24-9-43-4-5-11-5-15-1-5 4-5 10-1 15 7 7 9 14 6 20-3 7-12 11-17 11-23 0-40-17-40-41 1-30 25-55 55-55 40 0 72 32 72 72 0 50-41 91-92 91-65 0-118-52-118-116 0-83 68-150 152-150 98 0 142 79 159 125l1 3c13 35 28 75 56 83-15 30-54 55-106 55h-78zm264-102c0 57-44 102-99 102h-6c31-18 52-48 52-80v-36c0-13 16-22 31-22 14 0 22 8 22 22v14zm11-90c-6 0-11-5-11-10 0-6 5-11 11-11s11 5 11 11c0 5-5 10-11 10z"/>
</svg>